<svg xmlns="http://www.w3.org/2000/svg" width="39.993" height="40.004" viewBox="0 0 39.993 40.004">
    <path fill="#f16d7f" d="M1052 3121.1l-3.472 2.9-2.289-3.929-4.241 1.516-.821-4.489-4.495-.045.732-4.506-4.209-1.6 2.21-3.974L1032 3104l3.412-2.974-2.21-3.973 4.21-1.6-.733-4.5 4.5-.045.822-4.489 4.24 1.515 2.289-3.929 3.472 2.9 3.472-2.9 2.289 3.929 4.241-1.515.821 4.49 4.495.045-.732 4.5 4.209 1.6-2.21 3.974L1072 3104l-3.412 2.974 2.208 3.973-4.21 1.6.733 4.5-4.5.046-.821 4.489-4.24-1.517-2.289 3.929zm1.206-1.486l1.762 1.474 1.161-1.993.792-1.36 1.468.524 2.152.77.417-2.277.285-1.558 1.561-.016 2.282-.021-.372-2.288-.254-1.562 1.459-.555 2.134-.815-1.12-2.014-.767-1.378 1.183-1.03 1.734-1.513-1.733-1.509-1.183-1.031.767-1.379 1.12-2.015-2.134-.813-1.459-.555.255-1.562.372-2.286-2.283-.023-1.56-.017-.285-1.557-.416-2.278-2.153.769-1.468.524-.793-1.36-1.162-1.993-1.763 1.473-1.205 1.007-1.205-1.007-1.762-1.473-1.161 1.993-.793 1.36-1.468-.524-2.152-.769-.417 2.279-.285 1.557-1.56.017-2.282.022.372 2.287.254 1.562-1.459.556-2.135.813 1.12 2.014.766 1.378-1.182 1.031-1.735 1.511 1.733 1.51 1.183 1.031-.767 1.379-1.12 2.014 2.133.812 1.46.556-.255 1.562-.372 2.29 2.282.022 1.561.016.285 1.558.417 2.278 2.153-.769 1.468-.524.793 1.36 1.162 1.993 1.762-1.474 1.206-1.018zm.118-12.547c0-2.932 1.565-4.563 3.46-4.563 2.006 0 3.306 1.566 3.3 4.338 0 3.065-1.586 4.586-3.416 4.586-1.78-.002-3.324-1.454-3.345-4.363zm1.521-.088c-.022 1.856.682 3.264 1.873 3.264 1.277 0 1.849-1.387 1.849-3.308 0-1.769-.507-3.244-1.849-3.244-1.212-.003-1.874 1.45-1.874 3.286zm-7.646 4.411l8.416-14.749h1.234l-8.417 14.749zm-3.216-10.364c0-2.907 1.563-4.542 3.459-4.542 2.005 0 3.326 1.567 3.326 4.341 0 3.063-1.586 4.584-3.437 4.584-1.784-.001-3.326-1.455-3.348-4.385zm1.543-.066c-.045 1.855.641 3.263 1.85 3.265 1.277 0 1.85-1.387 1.85-3.309 0-1.769-.507-3.245-1.85-3.245-1.21-.002-1.85 1.451-1.85 3.287z" transform="translate(-1032.003 -3083.998)"/>
</svg>
